<?xml version="1.0" encoding="utf-8"?>
<!-- Generator: Adobe Illustrator 24.0.1, SVG Export Plug-In . SVG Version: 6.00 Build 0)  -->
<svg version="1.1" id="Layer_1" xmlns="http://www.w3.org/2000/svg" xmlns:xlink="http://www.w3.org/1999/xlink" x="0px" y="0px"
	 viewBox="0 0 9 16" style="enable-background:new 0 0 9 16;" xml:space="preserve">
<style type="text/css">
	.st0{enable-background:new    ;}
	.st1{fill:#2D2D28;}
</style>
<g class="st0">
	<path class="st1" d="M8.1,0.9c0,0,0.1,0,0.1,0.1c0.1,0.1,0.1,0.2,0.1,0.3s0,0.2-0.1,0.3L1.3,8.5l7,6.9c0,0.1,0.1,0.2,0.1,0.3
		c0,0.1,0,0.2-0.1,0.3c-0.1,0.1-0.2,0.1-0.3,0.1c-0.1,0-0.2,0-0.3-0.1L0.5,8.8C0.4,8.7,0.4,8.6,0.4,8.5s0-0.2,0.1-0.3L7.7,1
		c0,0,0.1,0,0.1-0.1C7.8,0.9,7.9,0.9,8.1,0.9C8.1,0.9,8.1,0.9,8.1,0.9z"/>
</g>
</svg>
