<?xml version="1.0" encoding="utf-8"?>
<!-- Generator: Adobe Illustrator 24.0.1, SVG Export Plug-In . SVG Version: 6.00 Build 0)  -->
<svg version="1.1" id="Layer_1" xmlns="http://www.w3.org/2000/svg" xmlns:xlink="http://www.w3.org/1999/xlink" x="0px" y="0px"
             viewBox="0 0 13 18" style="enable-background:new 0 0 13 18;" xml:space="preserve">
<style type="text/css">
    .st0{enable-background:new    ;}
    .st1{fill:#2D2D28;}
</style>
            <g class="st0">
                <path class="st1" d="M11.7,17.5c-0.1,0-0.1-0.1-0.2-0.1l-5-5.9l-5,5.9c-0.1,0.1-0.1,0.1-0.2,0.1c-0.1,0-0.2,0-0.3,0
		c-0.1,0-0.2-0.1-0.2-0.2s-0.1-0.2-0.1-0.3V0.9c0-0.1,0-0.2,0.1-0.3C0.9,0.5,1,0.5,1.2,0.5h10.7c0.1,0,0.2,0,0.3,0.1
		c0.1,0.1,0.1,0.2,0.1,0.3v16.2c0,0.1,0,0.2-0.1,0.3c-0.1,0.1-0.1,0.1-0.2,0.2c0,0,0,0-0.1,0s-0.1,0-0.1,0
		C11.8,17.5,11.8,17.5,11.7,17.5z"/>
            </g>
</svg>