<?xml version="1.0" encoding="utf-8"?>
<!-- Generator: Adobe Illustrator 24.0.1, SVG Export Plug-In . SVG Version: 6.00 Build 0)  -->
<svg version="1.1" id="Layer_1" xmlns="http://www.w3.org/2000/svg" xmlns:xlink="http://www.w3.org/1999/xlink" x="0px" y="0px"
	 viewBox="0 0 9 16" style="enable-background:new 0 0 9 16;" xml:space="preserve">
<style type="text/css">
	.st0{enable-background:new    ;}
	.st1{fill:#2D2D28;}
</style>
<g class="st0">
	<path class="st1" d="M0.7,16.1c0,0-0.1,0-0.1-0.1c-0.1-0.1-0.1-0.2-0.1-0.3s0-0.2,0.1-0.3l6.9-6.9L0.5,1.6C0.5,1.5,0.4,1.4,0.4,1.3
		s0-0.2,0.1-0.3c0.1-0.1,0.2-0.1,0.3-0.1c0.1,0,0.2,0,0.3,0.1l7.2,7.2c0.1,0.1,0.1,0.2,0.1,0.3c0,0.1,0,0.2-0.1,0.3L1.1,16
		C1.1,16,1,16,1,16.1c0,0-0.1,0-0.2,0S0.7,16.1,0.7,16.1z"/>
</g>
</svg>
