<?xml version="1.0" encoding="utf-8"?>
<!-- Generator: Adobe Illustrator 24.0.1, SVG Export Plug-In . SVG Version: 6.00 Build 0)  -->
<svg version="1.1" id="Layer_1" xmlns="http://www.w3.org/2000/svg" xmlns:xlink="http://www.w3.org/1999/xlink" x="0px" y="0px"
	 viewBox="0 0 14 10" style="enable-background:new 0 0 14 10;" xml:space="preserve">
<style type="text/css">
	.st0{enable-background:new    ;}
	.st1{fill:#2D2D28;}
</style>
<g class="st0">
	<path class="st1" d="M1,1.4c-0.1,0-0.2,0-0.3-0.1C0.6,1.3,0.6,1.2,0.6,1c0-0.1,0-0.2,0.1-0.3C0.8,0.7,0.9,0.6,1,0.6h12
		c0.1,0,0.2,0,0.3,0.1c0.1,0.1,0.1,0.2,0.1,0.3c0,0.1,0,0.2-0.1,0.3c-0.1,0.1-0.2,0.1-0.3,0.1H1z M1,5.4c-0.1,0-0.2,0-0.3-0.1
		C0.6,5.3,0.6,5.2,0.6,5c0-0.1,0-0.2,0.1-0.3C0.8,4.7,0.9,4.6,1,4.6h12c0.1,0,0.2,0,0.3,0.1c0.1,0.1,0.1,0.2,0.1,0.3
		c0,0.1,0,0.2-0.1,0.3c-0.1,0.1-0.2,0.1-0.3,0.1H1z M1,9.4c-0.1,0-0.2,0-0.3-0.1C0.6,9.3,0.6,9.2,0.6,9c0-0.1,0-0.2,0.1-0.3
		C0.8,8.7,0.9,8.6,1,8.6h12c0.1,0,0.2,0,0.3,0.1c0.1,0.1,0.1,0.2,0.1,0.3c0,0.1,0,0.2-0.1,0.3c-0.1,0.1-0.2,0.1-0.3,0.1H1z"/>
</g>
</svg>
